<?xml version="1.0" encoding="utf-8"?>
<!-- Generator: Adobe Illustrator 22.1.0, SVG Export Plug-In . SVG Version: 6.00 Build 0)  -->
<svg version="1.1" id="Layer_1" xmlns="http://www.w3.org/2000/svg" xmlns:xlink="http://www.w3.org/1999/xlink" x="0px" y="0px"
	 viewBox="0 0 32 32" style="enable-background:new 0 0 32 32;" xml:space="preserve">
<title>hamburger, List, menu, website</title>
<desc>Created with Sketch.</desc>
<g>
	<path d="M4.9,17c-0.6,0-1-0.4-1-1c0-0.6,0.4-1,1-1h22.2c0.6,0,1,0.4,1,1c0,0.6-0.4,1-1,1H4.9z M5,25c-0.6,0-1-0.4-1-1s0.4-1,1-1
		h22.1c0.6,0,1,0.4,1,1s-0.4,1-1,1H5z M5,9C4.4,9,4,8.6,4,8c0-0.6,0.4-1,1-1h22.1c0.6,0,1,0.4,1,1c0,0.6-0.4,1-1,1H5z"/>
</g>
</svg>
