<svg xmlns="http://www.w3.org/2000/svg" xmlns:xlink="http://www.w3.org/1999/xlink" x="0px" y="0px" viewBox="0 0 500 495" style="enable-background:new 0 0 500 495;" xml:space="preserve">
<style type="text/css">
	.st0{enable-background:new    ;}
</style>
<g>
	<g>
		<path d="M399.2,64.4C388.1,75.5,377,86.6,366,97.6c-26.6,26.6-53.2,53.2-79.8,79.8c-32.1,32.1-64.1,64.1-96.2,96.2
			c-27.8,27.8-55.7,55.7-83.5,83.5c-13.5,13.5-27.4,26.8-40.6,40.6c-0.2,0.2-0.4,0.4-0.6,0.6c-9.3,9.3-9.9,26.2,0,35.4
			c10,9.2,25.5,9.9,35.4,0c11.1-11.1,22.2-22.2,33.2-33.2c26.6-26.6,53.2-53.2,79.8-79.8c32.1-32.1,64.1-64.1,96.2-96.2
			c27.8-27.8,55.7-55.7,83.5-83.5c13.5-13.5,27.4-26.8,40.6-40.6c0.2-0.2,0.4-0.4,0.6-0.6c9.3-9.3,9.9-26.2,0-35.4
			C424.7,55.2,409.2,54.5,399.2,64.4L399.2,64.4z"/>
	</g>
	<g>
		<path d="M65.3,99.7c11.1,11.1,22.2,22.2,33.2,33.2c26.6,26.6,53.2,53.2,79.8,79.8c32.1,32.1,64.1,64.1,96.2,96.2
			c27.8,27.8,55.7,55.7,83.5,83.5c13.5,13.5,26.8,27.4,40.6,40.6c0.2,0.2,0.4,0.4,0.6,0.6c9.3,9.3,26.2,9.9,35.4,0
			c9.2-10,9.9-25.5,0-35.4c-11.1-11.1-22.2-22.2-33.2-33.2c-26.6-26.6-53.2-53.2-79.8-79.8c-32.1-32.1-64.1-64.1-96.2-96.2
			c-27.8-27.8-55.7-55.7-83.5-83.5c-13.5-13.5-26.8-27.4-40.6-40.6c-0.2-0.2-0.4-0.4-0.6-0.6c-9.3-9.3-26.2-9.9-35.4,0
			C56.2,74.3,55.5,89.8,65.3,99.7L65.3,99.7z"/>
	</g>
</g>
</svg>
