<svg xmlns:dc="http://purl.org/dc/elements/1.1/" xmlns:cc="http://creativecommons.org/ns#" xmlns:rdf="http://www.w3.org/1999/02/22-rdf-syntax-ns#" xmlns:svg="http://www.w3.org/2000/svg" xmlns="http://www.w3.org/2000/svg" xmlns:sodipodi="http://sodipodi.sourceforge.net/DTD/sodipodi-0.dtd" xmlns:inkscape="http://www.inkscape.org/namespaces/inkscape" version="1.1" x="0px" y="0px" viewBox="0 0 100 125"><g transform="translate(0,-952.36218)"><path style="text-indent:0;text-transform:none;direction:ltr;block-progression:tb;baseline-shift:baseline;color:#000000;enable-background:accumulate;" d="m 17.069155,958.36232 a 2.0002,2.0002 0 0 0 -1.38518,0.58566 l -9.0982501,9.09825 a 2.0002,2.0002 0 0 0 0,2.82855 l 31.4938101,31.48152 -31.4938101,31.4938 a 2.0002,2.0002 0 0 0 0,2.8282 l 9.0982501,9.0982 a 2.0002,2.0002 0 0 0 2.82855,0 l 31.48154,-31.4938 31.4938,31.4938 a 2.0002,2.0002 0 0 0 2.82817,0 l 9.09824,-9.0982 a 2.0002,2.0002 0 0 0 0,-2.8282 l -31.49381,-31.4938 31.49381,-31.48152 a 2.0002,2.0002 0 0 0 0,-2.82855 l -9.09824,-9.09825 a 2.0002,2.0002 0 0 0 -2.82817,0 l -31.4938,31.4938 -31.48154,-31.4938 a 2.0002,2.0002 0 0 0 -1.44337,-0.58566 z" fill="#000000" fill-opacity="1" fill-rule="evenodd" stroke="none" marker="none" visibility="visible" display="inline" overflow="visible"/></g></svg>